<?xml version="1.0" encoding="utf-8"?>
<!-- Generator: Adobe Illustrator 23.0.3, SVG Export Plug-In . SVG Version: 6.00 Build 0)  -->
<svg version="1.1" id="Layer_1" xmlns="http://www.w3.org/2000/svg" xmlns:xlink="http://www.w3.org/1999/xlink" x="0px" y="0px"
	 viewBox="0 0 300 300" style="enable-background:new 0 0 300 300;" xml:space="preserve">
<style type="text/css">
	.st0{opacity:0.76;fill:#D4DE25;}
	.st1{opacity:0.42;fill:#ADD136;}
	.st2{opacity:0.42;fill:#63BC46;}
	.st3{fill:none;}
	.st4{fill:#F89938;}
	.st5{font-family:'PalatinoLinotype-Roman';}
	.st6{font-size:50px;}
</style>
<g>
	<g>
		<path class="st0" d="M132.4,76.5c17.19-26.48,13.36-49.77,18.31-49.9c4.9-0.13,3.66,22.72,21.64,49.9
			c10.38,15.68,15.61,15.02,26.64,31.02c9.04,13.11,22.91,33.23,18.94,55.29c-3.92,21.81-26.88,54.37-67.22,54.45
			c-37.7,0.07-63.42-30.8-67.22-54.45c-3.55-22.15,11.44-42.29,21.43-55.71C117.01,90.86,122.67,91.48,132.4,76.5z"/>
		<path class="st1" d="M71.73,102.64c-8.43-31.42-28.1-47.73-24.99-50.8c3.07-3.03,19.14,15.95,50.84,26.9
			c18.29,6.32,21.19,2.66,40.13,8.84c15.52,5.07,39.35,12.84,53.07,32.83c13.56,19.76,22.76,59.49-3.28,83.68
			c-24.33,22.6-63.76,13.33-83.68-3.28c-18.65-15.56-23.82-40.61-27.27-57.3C72.38,123.31,76.5,120.42,71.73,102.64z"/>
		<path class="st2" d="M51.03,152.8C26.7,131.21,1.3,128.42,2.2,124.15c0.9-4.22,24.76,2.78,57.25-5.52
			c18.75-4.79,19.15-9.44,38.37-14.71c15.75-4.32,39.92-10.94,62.38-1.81c22.2,9.03,51.74,37.14,43.32,71.66
			c-7.87,32.26-45.89,46.23-71.66,43.32c-24.14-2.72-42.24-20.79-54.31-32.83C62.95,169.7,64.79,165.01,51.03,152.8z"/>
		<path class="st1" d="M204.09,74.36c30.07-12.41,43.71-34.02,47.15-31.34c3.4,2.66-13.35,21.04-20.12,53.88
			c-3.9,18.95,0.1,21.35-3.59,40.93c-3.02,16.05-7.66,40.68-25.71,56.86c-17.85,16-56.06,30.24-83.4,7.54
			c-25.55-21.21-21.45-61.51-7.54-83.4c13.02-20.5,37.2-28.86,53.31-34.43C183.68,77.67,187.08,81.38,204.09,74.36z"/>
		<path class="st2" d="M241.22,121.3c31.61,7.69,55.36-1.74,56.56,2.46c1.18,4.15-23.18,9.13-48,31.69
			c-14.32,13.01-12.5,17.31-27.02,30.96c-11.9,11.19-30.15,28.36-54.27,30.8c-23.85,2.41-63.11-8.59-71.83-43.04
			c-8.15-32.19,18.91-62.34,43.04-71.83c22.6-8.89,47.06-1.41,63.36,3.59C222.78,111.95,223.34,116.95,241.22,121.3z"/>
	</g>
	<rect x="52.3" y="230.45" class="st3" width="195.4" height="42.94"/>
	<text transform="matrix(1 0 0 1 54.2234 266.6117)" class="st4 st5 st6">Aarogya</text>
</g>
</svg>
